HIERARCHY
ROOT root
{
	OFFSET 0.000000 0.000000 0.000000
	CHANNELS 6 Xposition Yposition Zposition Zrotation Yrotation Xrotation
	JOINT lhip
	{
		OFFSET 0.058581 -0.082280 -0.017664
		CHANNELS 3 Zrotation Yrotation Xrotation
		JOINT lknee
		{
			OFFSET 0.043451 -0.386469 0.008037
			CHANNELS 3 Zrotation Yrotation Xrotation
			JOINT lankle
			{
				OFFSET -0.014790 -0.426874 -0.037428
				CHANNELS 3 Zrotation Yrotation Xrotation
				JOINT ltoe
				{
					OFFSET 0.041054 -0.060286 0.122042
					CHANNELS 3 Zrotation Yrotation Xrotation
					End Site
					{
						OFFSET 0.000000 0.000000 0.000000
					}
				}
			}
		}
	}
	JOINT rhip
	{
		OFFSET -0.060310 -0.090513 -0.013543
		CHANNELS 3 Zrotation Yrotation Xrotation
		JOINT rknee
		{
			OFFSET -0.043257 -0.383688 -0.004843
			CHANNELS 3 Zrotation Yrotation Xrotation
			JOINT rankle
			{
				OFFSET 0.019056 -0.420046 -0.034562
				CHANNELS 3 Zrotation Yrotation Xrotation
				JOINT rtoe
				{
					OFFSET -0.034840 -0.062106 0.130323
					CHANNELS 3 Zrotation Yrotation Xrotation
					End Site
					{
						OFFSET 0.000000 0.000000 0.000000
					}
				}
			}
		}
	}
	JOINT lowerback
	{
		OFFSET 0.004439 0.124404 -0.038385
		CHANNELS 3 Zrotation Yrotation Xrotation
		JOINT upperback
		{
			OFFSET 0.004488 0.137956 0.026820
			CHANNELS 3 Zrotation Yrotation Xrotation
			JOINT chest
			{
				OFFSET -0.002265 0.056032 0.002855
				CHANNELS 3 Zrotation Yrotation Xrotation
				JOINT lowerneck
				{
					OFFSET -0.013390 0.211636 -0.033468
					CHANNELS 3 Zrotation Yrotation Xrotation
					JOINT upperneck
					{
						OFFSET 0.010113 0.088937 0.050410
						CHANNELS 3 Zrotation Yrotation Xrotation
						End Site
						{
							OFFSET 0.000000 0.000000 0.000000
						}
					}
				}
				JOINT lclavicle
				{
					OFFSET 0.071702 0.114000 -0.018898
					CHANNELS 3 Zrotation Yrotation Xrotation
					JOINT lshoulder
					{
						OFFSET 0.122921 0.045205 -0.019046
						CHANNELS 3 Zrotation Yrotation Xrotation
						JOINT lelbow
						{
							OFFSET 0.255332 -0.015649 -0.022946
							CHANNELS 3 Zrotation Yrotation Xrotation
							JOINT lwrist
							{
								OFFSET 0.265709 0.012698 -0.007375
								CHANNELS 3 Zrotation Yrotation Xrotation
								End Site
								{
									OFFSET 0.000000 0.000000 0.000000
								}
							}
						}
					}
				}
				JOINT rclavicle
				{
					OFFSET -0.082954 0.112472 -0.023707
					CHANNELS 3 Zrotation Yrotation Xrotation
					JOINT rshoulder
					{
						OFFSET -0.113228 0.046853 -0.008472
						CHANNELS 3 Zrotation Yrotation Xrotation
						JOINT relbow
						{
							OFFSET -0.260127 -0.014369 -0.031269
							CHANNELS 3 Zrotation Yrotation Xrotation
							JOINT rwrist
							{
								OFFSET -0.269108 0.006794 -0.006027
								CHANNELS 3 Zrotation Yrotation Xrotation
								End Site
								{
									OFFSET 0.000000 0.000000 0.000000
								}
							}
						}
					}
				}
			}
		}
	}
}
MOTION
Frames: 17
Frame Time: 0.033333
0.393974 0.176618 1.000363 88.217066 0.926220 96.436087 7.710143 5.637552 3.513557 -2.877572 2.584638 -7.411855 -1.105650 11.624699 -1.314240 0.000000 -0.000000 0.000000 -6.908535 -2.342834 -2.986552 1.683718 -3.218089 0.623844 9.118407 -3.817149 -4.343106 0.000000 -0.000000 0.000000 -8.132850 3.496380 -14.027945 2.929971 0.149682 3.365458 0.119988 0.740987 -1.671267 4.626638 6.436538 9.784681 3.084618 -7.864815 12.842090 -3.891751 13.738019 -12.283084 -23.374852 -4.145494 6.173862 31.990352 -45.925969 -39.841403 -14.249461 -14.531443 -10.719055 13.666855 7.245033 -5.868303 34.428386 18.401999 24.657402 164.658067 59.871429 149.536724 8.916032 22.571649 -43.268344 
0.392388 0.178584 0.999641 88.630395 0.767001 96.291614 7.576614 5.494708 3.449912 -3.042623 2.912793 -7.174419 -1.127335 11.019588 -1.511790 0.000000 -0.000000 0.000000 -7.186478 -2.320376 -2.832884 1.627324 -4.012407 0.867441 9.080872 -3.281300 -4.326655 0.000000 -0.000000 0.000000 -7.878820 3.186413 -14.012629 3.165496 -0.076175 4.403760 0.010531 0.700604 -1.814736 5.297540 6.491056 10.649751 2.331615 -8.145368 13.165802 -5.836547 15.168072 -12.593618 -27.129229 -5.398765 6.180234 40.278320 -48.357726 -46.559960 -16.770445 -14.978115 -10.160577 15.584638 6.019457 -5.270600 37.005449 16.653963 25.866065 166.786797 60.392332 153.071330 11.527505 23.006134 -42.838503 
0.390624 0.179797 0.998229 88.707418 0.548989 96.177362 7.384882 5.401120 3.519651 -3.264734 3.081920 -7.086013 -1.082702 10.666320 -1.753049 0.000000 -0.000000 0.000000 -7.530466 -2.222324 -2.807080 1.573601 -4.541350 1.094457 8.836274 -2.784328 -4.491287 0.000000 -0.000000 0.000000 -7.426609 3.009806 -13.967750 3.271384 -0.162161 5.719780 -0.401667 0.729898 -2.514781 5.427010 5.876645 11.426748 2.121669 -7.565585 13.648344 -9.408186 16.064599 -13.222421 -29.464216 -6.916579 5.517565 48.726703 -50.037121 -53.975938 -17.737979 -15.126445 -11.327597 18.464969 5.151658 -4.327698 39.286334 15.890486 26.179990 167.722318 60.903104 156.027312 14.132495 23.491431 -42.323835 
0.388928 0.180130 0.996268 88.373453 0.388823 96.085546 7.236366 5.524331 3.647355 -3.440236 3.221030 -7.071412 -1.157547 10.579099 -2.030752 0.000000 -0.000000 0.000000 -7.781730 -2.058819 -2.876591 1.482656 -4.615008 1.233112 8.570219 -2.414624 -4.794453 0.000000 -0.000000 0.000000 -6.977603 2.990212 -13.944243 3.206305 -0.040320 6.716573 -0.831509 0.792735 -3.038049 5.636095 4.943658 12.201585 2.317989 -7.045049 14.044627 -11.461415 16.607435 -13.735955 -31.970331 -8.511924 5.010231 54.805998 -50.841438 -58.322094 -18.140606 -14.993721 -13.518478 19.228625 4.647491 -3.555243 41.277993 16.314009 26.505162 166.760008 61.213598 156.433254 14.342804 23.329498 -43.126376 
0.387220 0.180086 0.994817 87.936805 0.227029 96.013185 7.055217 5.566359 3.657925 -3.506846 3.608452 -6.920155 -1.321559 10.487291 -1.994149 0.000000 -0.000000 0.000000 -8.044462 -1.935013 -2.980510 1.439453 -4.682740 1.266147 8.591217 -2.055204 -4.807123 0.000000 -0.000000 0.000000 -6.791464 3.102455 -14.251967 2.996129 -0.025843 7.747163 -1.089374 0.769322 -3.103115 6.138759 4.418494 13.225993 2.768757 -7.120453 13.753971 -10.879082 16.771441 -13.401802 -34.181765 -9.214014 4.631472 57.133997 -51.873853 -59.599531 -18.459840 -15.523402 -14.775674 18.114964 4.848863 -2.943125 41.637953 17.352376 26.293069 165.268418 60.859820 155.340187 13.729782 23.338353 -42.941788 
0.386029 0.180292 0.994858 87.479786 0.150885 95.793726 6.886637 5.637482 3.763549 -3.457717 3.875594 -6.684317 -1.365333 10.638915 -1.949282 0.000000 -0.000000 0.000000 -8.208793 -1.895887 -2.994882 1.428360 -4.395672 1.368458 8.661104 -1.899981 -4.613453 0.000000 -0.000000 0.000000 -6.630848 3.350404 -14.722002 2.706084 -0.035443 8.942827 -1.228823 0.720149 -3.002387 6.331137 3.719798 14.437030 3.351545 -6.974810 13.450919 -10.253537 15.889475 -12.772060 -33.465000 -8.731617 4.645087 57.633343 -53.646545 -60.632149 -18.070792 -15.756404 -14.963711 16.813121 5.384039 -2.694176 40.142541 17.785243 25.508950 165.008350 59.910681 154.635530 13.471908 23.484210 -42.893406 
0.385922 0.179837 0.995715 87.339310 0.183422 95.567293 6.935448 5.740522 3.885807 -3.443018 3.735676 -6.470308 -1.353924 10.932785 -1.820636 0.000000 -0.000000 0.000000 -8.070313 -2.184723 -2.841469 1.322123 -3.828089 1.380187 8.640823 -2.101135 -4.448382 0.000000 -0.000000 0.000000 -6.680075 3.554487 -15.420018 2.546870 -0.431102 10.384778 -1.282761 0.732989 -3.141910 6.064260 3.099308 15.619499 4.036933 -6.449587 13.661043 -10.236246 14.755431 -12.294744 -30.444745 -7.864737 5.078793 56.919037 -56.245518 -60.730310 -16.076378 -15.451642 -14.596447 15.759151 5.421813 -2.776042 38.702664 17.496569 24.756036 165.545478 58.933583 154.386872 11.541274 22.550802 -42.989960 
0.384612 0.179974 0.996159 87.260669 0.238249 95.326164 6.977559 5.767645 4.019463 -3.412227 3.630701 -6.391292 -1.139298 11.056651 -1.769170 0.000000 -0.000000 0.000000 -7.940313 -2.251480 -2.793579 1.232860 -3.464500 1.509556 8.570965 -2.311817 -4.453679 0.000000 -0.000000 0.000000 -6.667380 3.463460 -15.198392 2.515843 -0.665882 10.600206 -1.293028 0.794553 -3.111137 5.795565 2.665352 16.734683 4.235525 -5.966365 14.105157 -9.978433 14.232720 -11.864931 -28.361712 -7.096802 6.335771 56.341556 -58.790455 -60.272046 -13.962769 -15.502082 -14.626048 15.039265 4.867725 -3.152189 38.347220 17.080887 24.482633 166.262689 58.569139 155.030628 9.920773 21.711281 -41.942266 
0.383371 0.180361 0.995847 87.314527 0.304432 95.159991 7.096409 5.818796 4.095214 -3.470072 3.641022 -6.395693 -0.995167 10.950703 -1.769816 0.000000 -0.000000 0.000000 -7.887674 -2.320651 -2.681881 1.272441 -3.467253 1.478716 8.501907 -2.304522 -4.433852 0.000000 -0.000000 0.000000 -6.782953 3.304544 -14.988268 2.789475 -0.800741 10.720620 -1.238851 0.841234 -2.939025 5.589952 2.494904 17.385548 4.267855 -5.666542 14.366007 -9.390201 14.520014 -11.213225 -28.783957 -7.075956 7.795059 56.814478 -61.375191 -59.719980 -12.836297 -15.757649 -15.326149 14.696273 3.605317 -3.484432 38.849825 16.770872 24.179860 166.790658 58.479456 155.952854 8.857477 21.048711 -41.159757 
0.382261 0.180832 0.995018 87.348370 0.355713 95.136819 7.232119 5.927442 4.011379 -3.602444 3.672288 -6.348965 -0.903807 10.733038 -1.811942 0.000000 -0.000000 0.000000 -7.884802 -2.345516 -2.714282 1.318863 -3.576709 1.464727 8.504356 -2.190450 -4.394808 0.000000 -0.000000 0.000000 -6.926336 3.277277 -15.237568 3.219075 -0.886583 11.369739 -1.193732 0.907545 -2.996535 5.253186 2.258626 18.053323 4.258959 -5.576587 14.504004 -9.060597 15.069921 -10.342638 -30.397266 -7.218552 9.351916 58.039445 -64.683266 -59.245758 -11.647776 -15.931922 -16.347602 14.795537 2.443793 -3.233266 39.063051 16.122966 24.015402 167.661932 58.708843 157.104712 7.048833 20.394984 -41.525109 
0.381711 0.181551 0.993993 87.395800 0.367375 95.153976 7.240000 5.957389 3.907872 -3.624565 3.690843 -6.282520 -0.778996 10.582967 -1.852511 0.000000 -0.000000 0.000000 -7.930560 -2.367033 -2.723128 1.355771 -3.611052 1.379943 8.506791 -2.187280 -4.357788 0.000000 -0.000000 0.000000 -7.030329 3.400775 -15.840897 3.670461 -0.898571 12.569857 -1.236566 0.947329 -3.402712 4.944977 1.744227 18.855830 4.300984 -5.273636 14.765344 -9.378299 15.689947 -9.161642 -31.996323 -7.168172 11.134787 60.964328 -69.285596 -60.696526 -10.956322 -15.842643 -18.433861 15.240988 0.936666 -2.694384 39.607081 14.518157 23.758849 167.865324 59.555100 157.178573 6.587566 19.750430 -42.257991 
0.381342 0.182382 0.993197 87.602625 0.266420 95.183309 7.135185 5.853818 3.739434 -3.662677 3.675279 -6.148633 -0.717974 10.462393 -1.994715 0.000000 -0.000000 0.000000 -8.051267 -2.461285 -2.668912 1.338451 -3.689244 1.243142 8.497219 -2.261281 -4.256328 0.000000 -0.000000 0.000000 -7.367185 3.613417 -16.476124 4.171296 -1.002640 13.521218 -1.269957 0.961669 -3.562058 4.449299 1.074634 19.506754 4.858289 -5.106428 15.343447 -9.929181 16.694259 -8.009055 -34.062670 -7.145066 13.499869 65.795641 -74.761495 -64.620464 -11.453168 -16.294146 -21.077981 16.253363 -1.131662 -2.239111 39.707990 12.488740 23.745317 166.849788 61.204057 155.497960 6.300230 18.897381 -42.245909 
0.380913 0.183385 0.992813 87.791402 0.133641 95.159255 7.027287 5.833375 3.632074 -3.808352 3.687225 -5.990521 -0.611223 10.257998 -2.080959 0.000000 -0.000000 0.000000 -8.219041 -2.555302 -2.602523 1.315298 -3.750868 1.193140 8.512107 -2.297387 -4.085496 0.000000 -0.000000 0.000000 -7.686190 3.782277 -16.924075 4.661900 -1.066906 14.218411 -1.288481 0.977629 -3.519192 3.778586 0.368437 20.109855 5.285887 -4.843545 15.833315 -10.957966 17.739337 -7.185012 -36.049696 -6.803508 16.608817 73.120987 -80.177735 -71.588331 -12.548331 -17.255083 -22.962875 17.779101 -3.567711 -2.130072 39.445947 10.134610 24.002631 164.448146 63.729045 152.418430 5.660615 18.278332 -40.151331 
0.380520 0.184431 0.992533 87.881650 0.039977 94.992698 6.933352 5.879240 3.728839 -3.913316 3.510641 -5.903591 -0.389153 10.260533 -2.278518 0.000000 -0.000000 0.000000 -8.327484 -2.604544 -2.438683 1.262945 -3.572899 1.222776 8.385194 -2.532943 -4.005429 0.000000 -0.000000 0.000000 -7.816196 3.855580 -17.025573 5.014359 -1.078984 14.486308 -1.216455 1.177103 -3.229778 2.861785 -0.578483 20.694596 5.498752 -4.083874 16.274981 -12.326245 17.979165 -6.260465 -38.018645 -5.624549 19.953512 86.842298 -84.935615 -85.483983 -13.216491 -17.750309 -24.734822 19.199233 -5.597829 -2.351689 39.058423 7.513009 23.916239 160.448534 66.978660 147.282937 7.178862 16.845935 -37.979170 
0.380100 0.185452 0.992087 88.047191 -0.087216 94.607934 6.850234 5.920992 4.052702 -4.035803 3.155672 -5.839053 -0.033239 10.313457 -2.387761 0.000000 -0.000000 0.000000 -8.501318 -2.644015 -1.993687 1.286823 -3.318754 1.190047 8.177605 -2.869440 -4.040562 0.000000 -0.000000 0.000000 -7.757953 3.803703 -16.796993 5.182713 -1.135562 14.694704 -1.269315 1.502626 -3.029202 2.002805 -1.505568 21.258239 5.670458 -3.239382 16.716523 -13.739490 17.660370 -5.203007 -40.121345 -4.418653 23.206010 118.536546 -88.880498 -117.305319 -13.332890 -18.141729 -26.623420 20.159720 -7.164485 -2.464857 39.528964 4.604975 23.928492 154.572150 70.717771 141.485289 7.545901 14.845465 -35.786741 
0.379514 0.186148 0.991599 88.199502 -0.197551 94.163360 6.829613 5.965123 4.428298 -4.196444 2.807522 -5.782324 0.250594 10.342569 -2.472383 0.000000 -0.000000 0.000000 -8.616177 -2.656971 -1.522353 1.252295 -3.073250 1.214870 7.972179 -3.185090 -4.099278 0.000000 -0.000000 0.000000 -7.589618 3.763745 -16.378536 5.210570 -1.163473 14.880882 -1.400845 1.723959 -3.043805 1.548168 -2.199587 21.739997 5.731287 -2.638752 17.071307 -15.059266 16.954147 -4.271426 -42.054488 -3.489172 25.793617 -87.975224 -87.222988 89.315606 -14.946832 -18.844210 -27.528622 20.699839 -8.035567 -2.140417 40.209463 2.148661 23.980365 145.540659 74.486811 133.168159 8.492560 12.903557 -33.389266 
0.378608 0.186508 0.991112 88.366758 -0.296773 93.755445 6.795933 6.009800 4.629561 -4.274932 2.459214 -5.547028 0.383758 10.381288 -2.683646 0.000000 -0.000000 0.000000 -8.698072 -2.655406 -1.078436 1.213269 -2.853591 1.176756 7.745245 -3.493081 -4.217392 0.000000 -0.000000 0.000000 -7.376365 3.737802 -15.960986 5.116333 -1.216341 15.145429 -1.550231 1.760919 -3.200425 1.288752 -2.637220 22.033693 5.766884 -2.280131 17.407553 -16.311254 15.801624 -3.509116 -43.757225 -2.894905 27.466200 -75.947625 -84.078772 77.733477 -17.158187 -19.324293 -26.876936 20.825795 -8.011439 -1.562196 40.711309 0.506276 24.287062 131.630306 77.113321 119.760494 8.764266 11.546114 -32.171487 
